<?xml version="1.0" encoding="utf-8"?><svg version="1.1" id="Layer_1" xmlns="http://www.w3.org/2000/svg" xmlns:xlink="http://www.w3.org/1999/xlink" x="0px" y="0px" viewBox="0 0 122.37 122.88" style="enable-background:new 0 0 122.37 122.88" xml:space="preserve"><style type="text/css">.st0{fill-rule:evenodd;clip-rule:evenodd;}</style><g><path class="st0" d="M24.68,20.94c1.9,0,3.43,1.54,3.43,3.43c0,1.9-1.54,3.43-3.43,3.43c-1.9,0-3.43-1.54-3.43-3.43 C21.25,22.48,22.79,20.94,24.68,20.94L24.68,20.94z M120.62,5.56c0.11,0.19,0.19,0.41,0.23,0.63c0.11,0.4,0.09,0.8-0.04,1.17 c-0.41,3.45-2.12,5.34-3.57,6.95c-1.33,1.47-2.28,2.53,1.32,6.33c0.99,1.04,1.7,2.06,2.2,3.05c0.57,1.16,0.84,2.29,0.87,3.36 c0.07,2.98-1.71,4.72-3.57,6.53c-1.14,1.12-2.33,2.28-2.69,3.66c-0.18,0.73,0.99,2.04,2.26,3.48c1.85,2.08,3.86,4.33,4.02,7.37 c0.18,3.49-1.94,5.67-3.95,7.74c-1.48,1.52-2.86,2.95-2.01,4.52c0.49,0.91,1.52,1.83,2.55,2.75c1.93,1.73,3.85,3.45,4.1,6.14 c0.29,3.12-1.39,4.85-3.21,6.71c-1.31,1.35-2.73,2.81-2.78,4.99c-0.01,0.5,0.06,0.97,0.25,1.36c0.13,0.28,0.34,0.53,0.62,0.71 c1.33,0.84,2.34,1.99,3.02,3.3c0.71,1.36,1.07,2.91,1.08,4.46c0.02,3.44-1.59,5.38-3.1,7.21c-0.99,1.19-1.92,2.31-1.78,3.78 c0.42,0.84,1.24,1.72,2.07,2.59c2.68,2.83,5.33,5.64,1.83,10.83c-1.31,1.94-3.48,3.34-6.33,3.57c-2.15,0.17-4.69-0.33-7.5-1.82 c-1.42-0.09-2.52,0.82-3.68,1.78c-1.83,1.51-3.76,3.12-7.21,3.1c-1.56-0.01-3.1-0.37-4.46-1.08c-1.31-0.68-2.47-1.69-3.3-3.02 c-0.18-0.29-0.42-0.49-0.71-0.62c-0.39-0.18-0.86-0.26-1.36-0.25c-2.18,0.05-3.64,1.47-4.99,2.78c-1.87,1.82-3.59,3.5-6.71,3.21 c-2.69-0.25-4.41-2.17-6.14-4.1c-0.92-1.03-1.84-2.06-2.75-2.55c-1.58-0.85-3,0.53-4.52,2.01c-2.07,2.01-4.25,4.13-7.74,3.95 c-3.04-0.16-5.29-2.16-7.37-4.02c-1.43-1.28-2.75-2.45-3.48-2.26c-1.38,0.35-2.54,1.54-3.66,2.68c-1.81,1.86-3.55,3.63-6.53,3.57 c-1.07-0.02-2.2-0.29-3.36-0.87c-0.99-0.49-2.02-1.21-3.05-2.2c-3.79-3.6-4.85-2.65-6.33-1.32c-1.72,1.55-3.75,3.38-7.64,3.64 c-1.44,0.09-2.81-0.23-4.09-0.98c-1.16-0.68-2.21-1.7-3.15-3.06c-0.81-1.02-1.37-2.11-1.67-3.26c-0.25-0.93-0.32-1.89-0.21-2.87 c-0.1-0.67,0.14-1.37,0.68-1.82c0.14-0.14,0.31-0.26,0.49-0.36c0.74-0.55,1.28-1.12,1.62-1.69c0.34-0.58,0.48-1.19,0.44-1.84 c-0.16-2.5-1.5-3.98-2.63-5.23c-2.76-3.06-4.74-5.26,1.4-11.72c0.7-0.74,1.19-1.43,1.51-2.08c0.31-0.62,0.45-1.18,0.46-1.68 c0.03-1.27-1.14-2.41-2.37-3.61c-1.54-1.51-3.15-3.07-3.77-5.52c-0.7-2.77,1.14-4.84,3.15-7.1c1.41-1.58,2.93-3.3,3.02-4.93 c0.09-1.76-1.41-3.31-2.83-4.77c-2.53-2.61-4.9-5.04-2.66-9.17C1.71,48.19,3,47.03,4.3,45.87c1.35-1.2,2.69-2.4,2.79-3.54 c0.12-1.3-0.95-2.4-2.1-3.59c-1.84-1.89-3.82-3.92-3.9-7.67c-0.03-1.1,0.16-2.18,0.62-3.15c0.44-0.94,1.13-1.76,2.1-2.37 c0.7-0.44,1.23-1.06,1.61-1.78c0.42-0.81,0.64-1.73,0.64-2.64c0.01-1.99-1.13-3.36-2.2-4.65c-1.62-1.96-3.15-3.81-2.6-7.17 c0.03-0.2,0.09-0.39,0.18-0.57c0.22-0.52,0.45-0.99,0.7-1.42c0.3-0.51,0.65-0.99,1.04-1.42c0.32-0.35,0.68-0.68,1.1-0.98 c0.37-0.27,0.75-0.49,1.14-0.68c0.07-0.04,0.15-0.08,0.22-0.11c3.72-1.51,5.79-0.2,7.83,1.09c1.58,1,3.12,1.97,7.01-1.47 c1.09-0.96,2.13-1.68,3.14-2.18c1.11-0.54,2.18-0.82,3.22-0.84c2.98-0.07,4.72,1.71,6.53,3.57c1.12,1.14,2.28,2.33,3.66,2.68 c0.73,0.18,2.04-0.99,3.48-2.26c2.08-1.85,4.33-3.86,7.37-4.02c3.49-0.18,5.67,1.94,7.74,3.95c1.52,1.48,2.95,2.86,4.52,2.01 c0.91-0.49,1.83-1.52,2.75-2.55c1.73-1.93,3.44-3.85,6.14-4.1c3.12-0.29,4.85,1.39,6.71,3.21c1.35,1.31,2.81,2.73,4.99,2.78 c0.5,0.01,0.97-0.06,1.36-0.25c0.28-0.13,0.53-0.34,0.71-0.62c0.84-1.33,1.99-2.34,3.3-3.02c1.36-0.71,2.91-1.07,4.46-1.08 c3.44-0.02,5.38,1.59,7.21,3.1c1.25,1.03,2.42,2,3.99,1.75c1.16-0.19,2.4-1.11,3.62-2.02c1.62-1.2,3.23-2.4,5.31-2.71 c1.27-0.19,4.05-0.08,6.32,0.95C118.54,2.81,119.9,3.9,120.62,5.56L120.62,5.56z M7.26,7.78C7.23,7.8,7.19,7.81,7.16,7.83 c-0.22,0.1-0.41,0.2-0.56,0.31C6.44,8.25,6.28,8.41,6.11,8.59c-0.2,0.22-0.39,0.48-0.56,0.77c-0.16,0.26-0.29,0.53-0.41,0.8 c-0.15,1.48,0.78,2.6,1.77,3.8c1.52,1.83,3.12,3.76,3.1,7.21c-0.01,1.56-0.37,3.11-1.08,4.46c-0.68,1.31-1.69,2.47-3.02,3.3 c-0.29,0.18-0.49,0.42-0.62,0.71c-0.18,0.39-0.26,0.86-0.25,1.36c0.05,2.18,1.47,3.64,2.78,4.99c1.82,1.87,3.5,3.59,3.21,6.71 c-0.25,2.69-2.17,4.41-4.1,6.14c-1.03,0.92-2.06,1.84-2.55,2.75c-0.85,1.58,0.53,3,2.01,4.52c2.01,2.07,4.13,4.25,3.95,7.74 c-0.16,3.04-2.16,5.29-4.02,7.37c-1.28,1.43-2.45,2.75-2.26,3.48c0.35,1.38,1.54,2.54,2.69,3.66c1.86,1.81,3.63,3.55,3.57,6.53 c-0.02,1.07-0.29,2.2-0.87,3.36c-0.49,0.99-1.21,2.02-2.19,3.05c-3.6,3.79-2.65,4.85-1.32,6.33c1.55,1.72,3.38,3.75,3.64,7.64 c0.09,1.44-0.23,2.81-0.99,4.09c-0.54,0.92-1.3,1.78-2.28,2.57c-0.02,0.4,0.03,0.78,0.12,1.16c0.16,0.62,0.5,1.23,0.99,1.85h0 c0.03,0.04,0.06,0.08,0.09,0.12c0.62,0.91,1.26,1.55,1.92,1.94c0.58,0.34,1.19,0.48,1.84,0.44c2.5-0.16,3.98-1.5,5.23-2.63 c3.06-2.76,5.26-4.74,11.72,1.4c0.74,0.7,1.43,1.19,2.08,1.51c0.62,0.31,1.18,0.45,1.68,0.46c1.27,0.03,2.41-1.14,3.61-2.37 c1.51-1.54,3.07-3.15,5.53-3.77c2.77-0.7,4.84,1.14,7.1,3.15c1.58,1.41,3.3,2.93,4.93,3.02c1.76,0.09,3.31-1.41,4.77-2.83 c2.61-2.53,5.04-4.9,9.17-2.66c1.51,0.81,2.67,2.11,3.83,3.41c1.21,1.35,2.4,2.69,3.54,2.79c1.3,0.12,2.4-0.95,3.59-2.1 c1.89-1.84,3.92-3.82,7.67-3.9c1.1-0.03,2.18,0.16,3.15,0.62c0.94,0.44,1.76,1.13,2.37,2.1c0.44,0.7,1.06,1.23,1.78,1.61 c0.81,0.42,1.73,0.64,2.64,0.64c1.99,0.01,3.36-1.13,4.65-2.2c1.96-1.62,3.81-3.15,7.17-2.6c0.28,0.05,0.54,0.15,0.76,0.29 c2.15,1.16,3.99,1.57,5.47,1.44c1.54-0.13,2.68-0.84,3.34-1.81c1.73-2.57,0.16-4.23-1.43-5.91c-1.1-1.17-2.21-2.34-2.88-3.89 c-0.09-0.18-0.15-0.37-0.19-0.58c-0.55-3.36,0.98-5.2,2.6-7.17c1.07-1.3,2.21-2.67,2.2-4.65c0-0.92-0.22-1.84-0.64-2.64 c-0.37-0.72-0.91-1.34-1.61-1.78c-0.97-0.61-1.66-1.43-2.1-2.37c-0.46-0.97-0.64-2.05-0.62-3.15c0.09-3.74,2.07-5.78,3.9-7.67 c1.15-1.19,2.22-2.29,2.1-3.59c-0.11-1.13-1.45-2.33-2.79-3.54c-1.29-1.16-2.59-2.32-3.4-3.83c-2.23-4.13,0.13-6.57,2.66-9.17 c1.42-1.46,2.92-3,2.83-4.77c-0.09-1.63-1.61-3.34-3.02-4.93c-2.01-2.26-3.85-4.33-3.15-7.1c0.62-2.45,2.23-4.02,3.77-5.53 c1.23-1.2,2.4-2.34,2.37-3.61c-0.01-0.5-0.15-1.06-0.46-1.68c-0.32-0.65-0.81-1.34-1.51-2.08c-6.14-6.47-4.15-8.66-1.4-11.72 c1.05-1.16,2.28-2.53,2.58-4.73c-0.31-0.51-0.86-0.9-1.49-1.18c-1.5-0.67-3.29-0.76-4.1-0.64c-1.12,0.17-2.32,1.06-3.54,1.97 c-1.61,1.2-3.23,2.4-5.35,2.75c-3.36,0.55-5.2-0.98-7.17-2.6c-1.3-1.07-2.67-2.21-4.65-2.2c-0.92,0-1.84,0.22-2.64,0.64 c-0.72,0.38-1.34,0.91-1.78,1.61c-0.61,0.97-1.43,1.66-2.37,2.1c-0.97,0.46-2.05,0.64-3.15,0.62c-3.74-0.09-5.78-2.07-7.67-3.9 c-1.19-1.15-2.29-2.22-3.59-2.1c-1.13,0.11-2.33,1.45-3.54,2.79c-1.16,1.29-2.32,2.59-3.83,3.4c-4.13,2.23-6.57-0.13-9.17-2.66 c-1.46-1.42-3-2.92-4.77-2.83c-1.63,0.09-3.34,1.61-4.93,3.02c-2.26,2.01-4.33,3.85-7.1,3.15c-2.45-0.62-4.02-2.23-5.53-3.77 c-1.2-1.23-2.34-2.4-3.61-2.37c-0.46,0.01-0.98,0.15-1.56,0.44c-0.68,0.33-1.43,0.86-2.25,1.58c-6.12,5.42-8.9,3.66-11.75,1.86 C10.19,7.86,9.02,7.12,7.26,7.78L7.26,7.78z M96.17,92.95c1.9,0,3.43,1.54,3.43,3.43c0,1.9-1.54,3.43-3.43,3.43 c-1.9,0-3.43-1.54-3.43-3.43C92.73,94.49,94.27,92.95,96.17,92.95L96.17,92.95z M81.87,92.95c1.9,0,3.43,1.54,3.43,3.43 c0,1.9-1.54,3.43-3.43,3.43s-3.43-1.54-3.43-3.43C78.44,94.49,79.97,92.95,81.87,92.95L81.87,92.95z M67.57,92.95 c1.9,0,3.43,1.54,3.43,3.43c0,1.9-1.54,3.43-3.43,3.43s-3.43-1.54-3.43-3.43C64.14,94.49,65.68,92.95,67.57,92.95L67.57,92.95z M53.28,92.95c1.9,0,3.43,1.54,3.43,3.43c0,1.9-1.54,3.43-3.43,3.43c-1.9,0-3.43-1.54-3.43-3.43 C49.84,94.49,51.38,92.95,53.28,92.95L53.28,92.95z M38.98,92.95c1.9,0,3.43,1.54,3.43,3.43c0,1.9-1.54,3.43-3.43,3.43 c-1.9,0-3.43-1.54-3.43-3.43C35.55,94.49,37.08,92.95,38.98,92.95L38.98,92.95z M24.68,92.95c1.9,0,3.43,1.54,3.43,3.43 c0,1.9-1.54,3.43-3.43,3.43c-1.9,0-3.43-1.54-3.43-3.43C21.25,94.49,22.79,92.95,24.68,92.95L24.68,92.95z M96.17,74.95 c1.9,0,3.43,1.54,3.43,3.43c0,1.9-1.54,3.43-3.43,3.43c-1.9,0-3.43-1.54-3.43-3.43C92.73,76.49,94.27,74.95,96.17,74.95 L96.17,74.95z M81.87,74.95c1.9,0,3.43,1.54,3.43,3.43c0,1.9-1.54,3.43-3.43,3.43s-3.43-1.54-3.43-3.43 C78.44,76.49,79.97,74.95,81.87,74.95L81.87,74.95z M67.57,74.95c1.9,0,3.43,1.54,3.43,3.43c0,1.9-1.54,3.43-3.43,3.43 s-3.43-1.54-3.43-3.43C64.14,76.49,65.68,74.95,67.57,74.95L67.57,74.95z M53.28,74.95c1.9,0,3.43,1.54,3.43,3.43 c0,1.9-1.54,3.43-3.43,3.43c-1.9,0-3.43-1.54-3.43-3.43C49.84,76.49,51.38,74.95,53.28,74.95L53.28,74.95z M38.98,74.95 c1.9,0,3.43,1.54,3.43,3.43c0,1.9-1.54,3.43-3.43,3.43c-1.9,0-3.43-1.54-3.43-3.43C35.55,76.49,37.08,74.95,38.98,74.95 L38.98,74.95z M24.68,74.95c1.9,0,3.43,1.54,3.43,3.43c0,1.9-1.54,3.43-3.43,3.43c-1.9,0-3.43-1.54-3.43-3.43 C21.25,76.49,22.79,74.95,24.68,74.95L24.68,74.95z M96.17,56.95c1.9,0,3.43,1.54,3.43,3.43c0,1.9-1.54,3.43-3.43,3.43 c-1.9,0-3.43-1.54-3.43-3.43C92.73,58.49,94.27,56.95,96.17,56.95L96.17,56.95z M81.87,56.95c1.9,0,3.43,1.54,3.43,3.43 c0,1.9-1.54,3.43-3.43,3.43s-3.43-1.54-3.43-3.43C78.44,58.49,79.97,56.95,81.87,56.95L81.87,56.95z M67.57,56.95 c1.9,0,3.43,1.54,3.43,3.43c0,1.9-1.54,3.43-3.43,3.43s-3.43-1.54-3.43-3.43C64.14,58.49,65.68,56.95,67.57,56.95L67.57,56.95z M53.28,56.95c1.9,0,3.43,1.54,3.43,3.43c0,1.9-1.54,3.43-3.43,3.43c-1.9,0-3.43-1.54-3.43-3.43 C49.84,58.49,51.38,56.95,53.28,56.95L53.28,56.95z M38.98,56.95c1.9,0,3.43,1.54,3.43,3.43c0,1.9-1.54,3.43-3.43,3.43 c-1.9,0-3.43-1.54-3.43-3.43C35.55,58.49,37.08,56.95,38.98,56.95L38.98,56.95z M24.68,56.95c1.9,0,3.43,1.54,3.43,3.43 c0,1.9-1.54,3.43-3.43,3.43c-1.9,0-3.43-1.54-3.43-3.43C21.25,58.49,22.79,56.95,24.68,56.95L24.68,56.95z M96.17,38.95 c1.9,0,3.43,1.54,3.43,3.43c0,1.9-1.54,3.43-3.43,3.43c-1.9,0-3.43-1.54-3.43-3.43C92.73,40.48,94.27,38.95,96.17,38.95 L96.17,38.95z M81.87,38.95c1.9,0,3.43,1.54,3.43,3.43c0,1.9-1.54,3.43-3.43,3.43s-3.43-1.54-3.43-3.43 C78.44,40.48,79.97,38.95,81.87,38.95L81.87,38.95z M67.57,38.95c1.9,0,3.43,1.54,3.43,3.43c0,1.9-1.54,3.43-3.43,3.43 s-3.43-1.54-3.43-3.43C64.14,40.48,65.68,38.95,67.57,38.95L67.57,38.95z M53.28,38.95c1.9,0,3.43,1.54,3.43,3.43 c0,1.9-1.54,3.43-3.43,3.43c-1.9,0-3.43-1.54-3.43-3.43C49.84,40.48,51.38,38.95,53.28,38.95L53.28,38.95z M38.98,38.95 c1.9,0,3.43,1.54,3.43,3.43c0,1.9-1.54,3.43-3.43,3.43c-1.9,0-3.43-1.54-3.43-3.43C35.55,40.48,37.08,38.95,38.98,38.95 L38.98,38.95z M24.68,38.95c1.9,0,3.43,1.54,3.43,3.43c0,1.9-1.54,3.43-3.43,3.43c-1.9,0-3.43-1.54-3.43-3.43 C21.25,40.48,22.79,38.95,24.68,38.95L24.68,38.95z M96.17,20.94c1.9,0,3.43,1.54,3.43,3.43c0,1.9-1.54,3.43-3.43,3.43 c-1.9,0-3.43-1.54-3.43-3.43C92.73,22.48,94.27,20.94,96.17,20.94L96.17,20.94z M81.87,20.94c1.9,0,3.43,1.54,3.43,3.43 c0,1.9-1.54,3.43-3.43,3.43s-3.43-1.54-3.43-3.43C78.44,22.48,79.97,20.94,81.87,20.94L81.87,20.94z M67.57,20.94 c1.9,0,3.43,1.54,3.43,3.43c0,1.9-1.54,3.43-3.43,3.43s-3.43-1.54-3.43-3.43C64.14,22.48,65.68,20.94,67.57,20.94L67.57,20.94z M53.28,20.94c1.9,0,3.43,1.54,3.43,3.43c0,1.9-1.54,3.43-3.43,3.43c-1.9,0-3.43-1.54-3.43-3.43 C49.84,22.48,51.38,20.94,53.28,20.94L53.28,20.94z M38.98,20.94c1.9,0,3.43,1.54,3.43,3.43c0,1.9-1.54,3.43-3.43,3.43 c-1.9,0-3.43-1.54-3.43-3.43C35.55,22.48,37.08,20.94,38.98,20.94L38.98,20.94z"/></g></svg>